<?xml version="1.0" encoding="utf-8"?>
<!-- Generator: Adobe Illustrator 21.0.0, SVG Export Plug-In . SVG Version: 6.00 Build 0)  -->
<svg version="1.1" id="a6dc9487-50e2-4fb9-af91-bf1b7118d463"
	 xmlns="http://www.w3.org/2000/svg" xmlns:xlink="http://www.w3.org/1999/xlink" x="0px" y="0px" viewBox="0 0 1103.8 707.8"
	 style="enable-background:new 0 0 1103.8 707.8;" xml:space="preserve">
<style type="text/css">
	.st0{opacity:0.1;fill:#6C63FF;enable-background:new    ;}
	.st1{opacity:0.1;}
	.st2{fill:#6C63FF;}
	.st3{fill:#FFFFFF;}
	.st4{fill:#3F3D56;}
	.st5{opacity:0.8;fill:#FA5959;enable-background:new    ;}
	.st6{opacity:0.8;fill:#FED253;enable-background:new    ;}
	.st7{opacity:0.8;fill:#8CCF4D;enable-background:new    ;}
	.st8{opacity:0.2;fill:#6C63FF;enable-background:new    ;}
	.st9{fill:none;stroke:#3F3D56;stroke-miterlimit:10;}
	.st10{opacity:0.1;enable-background:new    ;}
	.st11{opacity:0.2;enable-background:new    ;}
	.st12{fill:url(#SVGID_1_);}
	.st13{fill:#65617D;}
	.st14{opacity:5.000000e-02;enable-background:new    ;}
	.st15{fill:#EE8E9E;}
	.st16{fill:#E3E8F4;}
	.st17{fill:#E6E8EC;}
	.st18{fill:#565387;}
</style>
<title>mind map</title>
<ellipse class="st0" cx="843.4" cy="664.8" rx="192" ry="43"/>
<g class="st1">
	<path class="st2" d="M625,26.8c0,156.1,97.9,282.4,219,282.4"/>
</g>
<path class="st0" d="M627.4,130c-70.8,0.5-138.7-15.4-203.7-33.3s-129.5-37.9-198.8-46c-44.6-5.3-95.4-4.4-130.5,16
	c-33.8,19.7-43.7,51.9-48.7,81.6c-3.7,22.4-5.5,45.9,7.5,66.2c9,14.1,24.6,25.7,35.6,39.2c38.3,46.8,14.5,107.1-23.4,155.5
	c-17.8,22.7-38.6,44.5-52.1,68.5s-19.2,51.1-5.8,74.6c13.3,23.3,43.5,40,76.1,51.5c66.1,23.1,143.2,27.7,218.3,29.2
	c166.1,3.2,332.7-6.6,498.8-16.5c61.5-3.7,123.2-7.3,183.5-17.2c33.5-5.5,67.9-13.4,91.7-30.6c30.2-21.8,36.7-57.1,15-82.3
	c-36.4-42.3-133-49.7-159-95.5c-14.3-25.2-1.6-54.4,17-78.9c39.9-52.6,108.3-100,110-158.6c1.1-40.2-34-79.3-86.7-96.4
	c-55.2-18-130.8-12.8-169.9,21.6C762.2,113.9,689.9,129.6,627.4,130z"/>
<path class="st3" d="M946.9,31.2v518.4c0,15.4-14.9,28-33.2,28H210.2c-18.4,0-33.2-12.5-33.2-28V31.2C177,15.7,191.9,0,210.2,0
	l703.3,1.7C931.9,1.7,946.9,15.7,946.9,31.2z"/>
<path class="st4" d="M946.9,31.3v24H177v-24C177,14,191,0,208.4,0h707.2C932.8,0,946.9,14,946.9,31.3
	C946.9,31.3,946.9,31.3,946.9,31.3z"/>
<circle class="st5" cx="214.3" cy="27.7" r="11.1"/>
<circle class="st6" cx="246.5" cy="27.7" r="11.1"/>
<circle class="st7" cx="278.8" cy="27.7" r="11.1"/>
<path class="st8" d="M465.6,170.7h52.9c4.7,0,8.6,3.8,8.6,8.6v16.1c0,4.7-3.8,8.6-8.6,8.6h-52.9c-4.7,0-8.6-3.8-8.6-8.6v-16.1
	C457,174.5,460.8,170.7,465.6,170.7z"/>
<path class="st8" d="M607.4,170.7h52.9c4.7,0,8.6,3.8,8.6,8.6v16.1c0,4.7-3.8,8.6-8.6,8.6h-52.9c-4.7,0-8.6-3.8-8.6-8.6v-16.1
	C598.8,174.5,602.7,170.7,607.4,170.7z"/>
<polyline class="st9" points="491.8,203.2 561.9,294.7 634.1,202.7 "/>
<path class="st10" d="M516.9,291.8h89.9c4.7,0,8.6,3.8,8.6,8.6V334c0,4.7-3.8,8.6-8.6,8.6h-89.9c-4.7,0-8.6-3.8-8.6-8.6v-33.6
	C508.4,295.6,512.2,291.8,516.9,291.8z"/>
<path class="st2" d="M519.1,292.8h85.5c4.7,0,8.6,3.8,8.6,8.6V333c0,4.7-3.8,8.6-8.6,8.6h-85.5c-4.7,0-8.6-3.8-8.6-8.6v-31.6
	C510.5,296.6,514.4,292.8,519.1,292.8z"/>
<line class="st9" x1="492.3" y1="170.7" x2="491.4" y2="138.4"/>
<polyline class="st9" points="675.2,139.9 634.1,170.7 590.8,139.9 "/>
<path class="st8" d="M465.2,106.7H518c4.7,0,8.6,3.8,8.6,8.6v16.1c0,4.7-3.8,8.6-8.6,8.6h-52.9c-4.7,0-8.6-3.8-8.6-8.6v-16.1
	C456.6,110.5,460.4,106.7,465.2,106.7z"/>
<path class="st8" d="M648.8,106.7h52.9c4.7,0,8.6,3.8,8.6,8.6v16.1c0,4.7-3.8,8.6-8.6,8.6h-52.9c-4.7,0-8.6-3.8-8.6-8.6v-16.1
	C640.2,110.5,644,106.7,648.8,106.7z"/>
<path class="st8" d="M564.4,106.7h52.9c4.7,0,8.6,3.8,8.6,8.6v16.1c0,4.7-3.8,8.6-8.6,8.6h-52.9c-4.7,0-8.6-3.8-8.6-8.6v-16.1
	C555.8,110.5,559.6,106.7,564.4,106.7z"/>
<line class="st9" x1="561.9" y1="341.5" x2="561.6" y2="430"/>
<path class="st9" d="M561.4,462.5L561.4,462.5z"/>
<polyline class="st9" points="462.4,493.1 561.4,462.5 660.8,492.9 "/>
<path class="st8" d="M535.2,430h52.9c4.7,0,8.6,3.8,8.6,8.6v16.1c0,4.7-3.8,8.6-8.6,8.6h-52.9c-4.7,0-8.6-3.8-8.6-8.6v-16.1
	C526.6,433.8,530.5,430,535.2,430z"/>
<path class="st8" d="M865.4,239.2v52.9c0,4.7-3.8,8.6-8.6,8.6h-16.1c-4.7,0-8.6-3.8-8.6-8.6v-52.9c0-4.7,3.8-8.6,8.6-8.6h16.1
	C861.6,230.6,865.4,234.5,865.4,239.2z"/>
<path class="st8" d="M832.2,401.7v-52.9c0-4.7,3.8-8.6,8.6-8.6h16.1c4.7,0,8.6,3.8,8.6,8.6v52.9c0,4.7-3.8,8.6-8.6,8.6h-16.1
	C836,410.3,832.2,406.4,832.2,401.7z"/>
<path class="st8" d="M634.4,492.7h52.9c4.7,0,8.6,3.8,8.6,8.6v16.1c0,4.7-3.8,8.6-8.6,8.6h-52.9c-4.7,0-8.6-3.8-8.6-8.6v-16.1
	C625.8,496.5,629.7,492.7,634.4,492.7z"/>
<path class="st8" d="M488.9,525.9H436c-4.7,0-8.6-3.8-8.6-8.6v-16.1c0-4.7,3.8-8.6,8.6-8.6h52.9c4.7,0,8.6,3.8,8.6,8.6v16.1
	C497.4,522.1,493.6,525.9,488.9,525.9z"/>
<path class="st8" d="M589.8,525.9h-52.9c-4.7,0-8.6-3.8-8.6-8.6v-16.1c0-4.7,3.8-8.6,8.6-8.6h52.9c4.7,0,8.6,3.8,8.6,8.6v16.1
	C598.4,522.1,594.5,525.9,589.8,525.9z"/>
<line class="st9" x1="801" y1="320.5" x2="832.2" y2="374.9"/>
<line class="st9" x1="735.1" y1="319.8" x2="767.8" y2="319.8"/>
<line class="st9" x1="613.2" y1="317.1" x2="702.5" y2="319.8"/>
<line class="st9" x1="832.2" y1="265.6" x2="801.2" y2="320.2"/>
<path class="st8" d="M735.7,293.1V346c0,4.7-3.8,8.6-8.6,8.6h-16.1c-4.7,0-8.6-3.8-8.6-8.6v-52.9c0-4.7,3.8-8.6,8.6-8.6h16.1
	C731.9,284.6,735.7,288.4,735.7,293.1z"/>
<path class="st8" d="M801,294v52.9c0,4.7-3.8,8.6-8.6,8.6h-16.1c-4.7,0-8.6-3.8-8.6-8.6V294c0-4.7,3.8-8.6,8.6-8.6h16.1
	C797.2,285.4,801,289.3,801,294z"/>
<path class="st8" d="M291.6,239.2v52.9c0,4.7-3.8,8.6-8.6,8.6H267c-4.7,0-8.6-3.8-8.6-8.6v-52.9c0-4.7,3.8-8.6,8.6-8.6H283
	C287.8,230.6,291.6,234.5,291.6,239.2z"/>
<path class="st8" d="M258.4,401.7v-52.9c0-4.7,3.8-8.6,8.6-8.6H283c4.7,0,8.6,3.8,8.6,8.6v52.9c0,4.7-3.8,8.6-8.6,8.6H267
	C262.2,410.3,258.4,406.4,258.4,401.7z"/>
<line class="st9" x1="322.8" y1="320.5" x2="291.6" y2="374.9"/>
<line class="st9" x1="388.7" y1="319.8" x2="356" y2="319.8"/>
<line class="st9" x1="510.5" y1="317.1" x2="421.3" y2="319.8"/>
<line class="st9" x1="291.6" y1="265.6" x2="322.6" y2="320.2"/>
<path class="st8" d="M421.3,293.2V346c0,4.7-3.8,8.6-8.6,8.6h-16.1c-4.7,0-8.6-3.8-8.6-8.6v-52.9c0-4.7,3.8-8.6,8.6-8.6h16.1
	C417.4,284.6,421.3,288.4,421.3,293.2z"/>
<path class="st8" d="M356,294v52.9c0,4.7-3.8,8.6-8.6,8.6h-16.1c-4.7,0-8.6-3.8-8.6-8.6V294c0-4.7,3.8-8.6,8.6-8.6h16.1
	C352.2,285.4,356,289.3,356,294z"/>
<ellipse class="st0" cx="175.4" cy="607.2" rx="17.5" ry="3"/>
<path class="st11" d="M196.7,605.7c-11.3,0.1-26.2-1.8-29.2-3.6c-2.3-1.4-3.2-6.4-3.5-8.7h-0.3c0,0,0.6,8.1,3.6,9.9
	c3,1.8,17.9,3.7,29.2,3.6c3.3,0,4.4-1.2,4.3-2.9C200.4,605.1,199.2,605.7,196.7,605.7z"/>
<linearGradient id="SVGID_1_" gradientUnits="userSpaceOnUse" x1="891.7889" y1="-82.7703" x2="891.7889" y2="185.1655" gradientTransform="matrix(1 0 0 -1 -48.1 611.9)">
	<stop  offset="0" style="stop-color:#808080;stop-opacity:0.25"/>
	<stop  offset="0.54" style="stop-color:#808080;stop-opacity:0.12"/>
	<stop  offset="1" style="stop-color:#808080;stop-opacity:0.1"/>
</linearGradient>
<path class="st12" d="M956.2,648.8l-27.7-40.1c0,0-0.5-9.9-2.3-12.3s-0.4-7.5-0.4-7.5s1.9-2.8,0.3-3.1s-0.3-6.6-0.3-6.6l-0.1-10.1
	c0,0,1.5-9.7,0.3-12c-0.8-1.3-0.7-2.9,0.1-4.1c0,0,1.5-5.5,0-7s-1.2-10.1-0.8-16.9s-2.7-10.7-2.7-11.7s-10.2-11.1-10.2-12
	s-6.5-4.6-10.3-5.7s-5.8-1.8-5.7-2.3s-6.1-2.6-6.1-2.6s-5.4-0.4-7.5-3.1s-8.4-3.5-8.6-3.5c0-0.2-0.1-0.4-0.1-0.5l-0.1-0.6
	c0.5-0.8,0.9-1.7,1.3-2.5l0.4-0.8c2.3,0,4.5-0.7,6.4-2c1.8-1.5,3-3.8,3.1-6.2c0.1-2.4-0.4-4.8-1.5-6.9c-1.1-2.3-2.8-4.7-2.2-7.2
	c0.2-1.1,0.9-2,1.2-3.1c0.5-2.1,0.2-4.3-0.9-6.1c-1-1.9-2.3-3.5-3.4-5.3c-1.4-2.3-2.3-4.9-2.7-7.5c-0.1-1.4-0.4-2.8-1-4.1
	c-0.6-0.9-1.4-1.7-2.3-2.3c-4-2.9-8.9-4.4-13.9-4.2c-3.5,0.1-7,1.1-10.5,0.6c-2.1-0.4-4.1-0.9-6.2-1.6c-4.3-1.3-9.3-1.8-13.1,0.7
	s-5.3,7.4-7.8,11.2c-2.3,3.4-5.6,6.2-7.3,9.8c0-0.1,0-0.1,0-0.2c-0.4,0.8-0.8,1.7-1,2.6c-0.7,2.8-0.1,5.8,0.6,8.5
	c0.4,1.5,0.8,3,2.1,3.8s3,0.6,4.5,0.9c-0.1,0.2-0.1,0.5-0.2,0.7c-3.2,15.1,5.7,30.1,20.5,34.5c0,0.3,0,0.5,0,0.8
	c0,0.8-0.1,1.5-0.1,2.2l0,0c0,0-13-2.7-16.5-0.9s-10.3,3.2-11.4,4.3s-3.6,0.3-6,6.3c-2.3,6.1-2.6,12.3-5.6,15.1s-4.5,4.8-4.7,6.8
	s0.4,2.6-0.8,3.2s-2.8,3.3-2.3,4.4c0,0,0.7,2.6-1.4,3.9c-1.2,0.9-1.9,2.4-1.8,3.9c0,0-0.8,2.8-2.6,3.5s-3,4.9-3,4.9l-5.9,6.7
	l-11.6-12.9c-1.8-2-4.9-2.2-6.9-0.3l-5.6,5.2c-2.2,0.5-4.2,1.7-5.7,3.4c-1.3,1.3-2.3,2.8-3,4.4l-3.1,2.8c-1,0.9-1.6,2.1-1.6,3.4
	c-0.8,1.8-0.5,3.9,0.8,5.3l7.4,8.2v0.1c-2.6,0.2-5.2,1.2-7.2,2.9c-11.1,9.8-11.2,18.8-9.6,23s15.8,20,15.8,20s8.2,10.7,20,16.3l0,0
	l-0.1,0.1c-0.2,0.2-0.5,0.5-0.7,0.8l-0.2,0.2l-0.2,0.2l-0.2,0.3l-0.2,0.2l-0.2,0.4c0,0.1-0.1,0.2-0.1,0.2c-0.1,0.2-0.2,0.3-0.3,0.5
	l-0.1,0.2c-0.1,0.2-0.2,0.5-0.3,0.7s-0.1,0.2-0.1,0.3s-0.1,0.3-0.2,0.5l-0.1,0.3c-0.1,0.2-0.1,0.3-0.2,0.5s-0.1,0.2-0.1,0.4
	l-0.2,0.6l-0.1,0.3c-0.1,0.3-0.1,0.6-0.2,0.9l-0.1,0.4c0,0.2-0.1,0.4-0.1,0.7s0,0.3-0.1,0.5s0,0.4-0.1,0.6s0,0.3,0,0.5s0,0.5,0,0.7
	s0,0.3,0,0.5c0,0.4,0,0.8,0,1.2c-0.3,15.1,0.6,17.3,0.6,17.3s1.8,4.8,6.9,5.2c0.7,0.1,1.5,0,2.2-0.1c6.7-1.2,22.5-3.9,28.1-2.8
	c3.3,0.6,9.5-0.3,13.9-1.1l1.2-0.2l0.8,2.6l2.6-0.7l2.2,1.2l1.4,0.8c2.5,8.7,12.9,5.7,12.9,5.7l2.5,1.4l25,0.6
	c2.8,1.7,5.8,3.1,8.8,4.2c0.4,0.1,0.8,0.2,1.2,0.3c2.3,0.2,4.6,0.2,7,0.1c1.9,0,3.4-0.1,3.4-0.1s-0.3-6.8-0.6-14.4
	c9.5-0.4,18-1,23.1-1.9c13.3-2.3,18.8-14.5,20.9-21c0.6,2.6,1,5.3,1.3,8c0.5,2.4,1.2,4.7,2.1,7c0.7,1.8,1.7,3.6,2.8,5.2
	c9.8-3.3,3.9-8.4,1.8-10.6s1.4-4,1.4-4s2.7-1.8,2.5-3.5s-0.4-3.5,8.4-3.3S956.2,648.8,956.2,648.8z M819.7,566.4
	c0.1,0.7,1.3,8.7,2.5,10.8c0.3,1.4,0.4,2.8,0.3,4.2c-5.2-0.4-10.6-0.6-10.6-0.6c0.2,0.2,0.3,0.4,0.3,0.7l-0.8-0.2
	c-0.4-0.1-0.8-0.2-1.2-0.3L819.7,566.4L819.7,566.4z M800.7,596.7l9,1.4l0.8,0.1c-0.3,1.4-0.4,2.8-0.5,4.3c0,0.1,0.2,0.3,0.5,0.5
	c-0.1,0.7-0.2,1.4-0.2,2.1c0.1,0.7,4.4,2.3,9.2,3.5c-0.1,0.3-0.1,0.5-0.2,0.7l0,0c-4.3-2.2-11-3.3-11.8-5s-23.6-9.6-23.6-9.6
	s-0.8-0.5-2.3-1.1l6,1.1l1.7-0.2C793,595.5,796.8,596.2,800.7,596.7L800.7,596.7z"/>
<path class="st13" d="M926.8,654.4c0,0-3.6,21.7-21.8,24.9s-78.9,2.6-78.9,2.6s-34.7-5-47.3-34.3s-20.6-41-9.9-41.5
	s68.8,19.6,72.2,19.9S930,581.2,926.8,654.4z"/>
<path class="st14" d="M926.8,654.4c0,0-3.6,21.7-21.8,24.9s-78.9,2.6-78.9,2.6s-34.7-5-47.3-34.3s-20.6-41-9.9-41.5
	s68.8,19.6,72.2,19.9S930,581.2,926.8,654.4z"/>
<path class="st4" d="M763.9,678.5c0,0,1.8,4.8,6.8,5.1c0.7,0.1,1.5,0,2.2-0.1c6.7-1.2,22.3-3.8,27.8-2.8c3.3,0.6,9.5-0.3,13.8-1.1
	c2.9-0.5,5-1.1,5-1.1s-5.1-17-5.8-17.6s-23.1-14-23.1-14l-17.8-1.2l0,0c-2.4,0.4-4.5,1.6-6,3.5c-1.9,2.3-3.5,6-3.6,12.1
	C763,676.3,763.9,678.5,763.9,678.5z"/>
<path class="st14" d="M763.9,678.5c0,0,1.8,4.8,6.8,5.1c-1.7-2.2-3.3-4.6-4.8-7l0.1-12.4c-0.7-6.9,1.9-13.8,7-18.5h-0.1
	c0,0-9.3,0.6-9.6,15.6S763.9,678.5,763.9,678.5z"/>
<path class="st10" d="M840.9,651.3l16.5-12.9l26-25.6c0,0-2.8-0.1-7-0.3c-1,0.7-4,2.8-4.1,5.3c-0.1,3.1-7,0.2-10.6,2
	s-21.1,24.3-24.2,24.1s-5.5-1.6-6.8,0.6l-0.1,0.1L840.9,651.3z"/>
<path class="st10" d="M766.9,649.2c0.6,0.3,1.2,0.6,1.8,0.8c12.6,5.4,28.1,16.7,29.2,18.7c0.7,1.2,9.7,6.7,16.6,10.8
	c2.9-0.5,5-1.1,5-1.1s-5.1-17-5.8-17.6s-23.1-14-23.1-14l-17.8-1.2l0,0C770.5,646.1,768.4,647.3,766.9,649.2z"/>
<path class="st13" d="M732,612.5c1.7,4.1,15.6,19.9,15.6,19.9s8.8,11.5,21.4,16.9s28.1,16.7,29.2,18.7c0.7,1.3,10.8,7.3,17.8,11.5
	l1.6,0.9l3.5,2l1.8,1.1c0,0,4.3-3.5,8.6-6.9s8.4-6.9,8.5-7c0.1-0.4,1.8-4.7,1.4-5c-0.2-0.1-1.1-1.9-2.7-4c-1.7-2.3-4-4.1-6.5-5.4
	c-5.9-2.7-8.5-8.8-8.5-8.8s-0.6-0.4-1.4-0.9c-1.7-1.2-3.7-2.1-5.8-2.6c-2.8-0.3-8.1-6.1-8.1-6.1s-3.6-2.3-5-5.2
	s-21.2-16.5-23.1-17.7l48.2,31l11.5,7.4l16.5-12.9l26-25.6c0,0-3.5-0.2-8.6-0.4c-12.7-0.5-35.1-1.4-37.9-0.8c-2.3,0.5-4.7,0.7-7,0.5
	c0,0-6.4,0.3-10.6-1.9s-10.9-3.3-11.7-4.9s-23.5-9.6-23.5-9.6s-30.9-16.4-41.9-6.7S730.3,608.4,732,612.5z"/>
<path class="st15" d="M831.6,518.4l4,13.2l5.1,29.7l18.8,1.3l5.5-9l5.4-9c0,0,3.4-12,5.8-23.6c2.2-10.3,3.6-20.3,1.2-21.3
	c-2.1-1-3.5-4.4-4.3-8.2c-0.1-0.5-0.2-0.9-0.3-1.4c-0.6-3.2-1-6.3-1.2-9.6c0,0-39.5-2-34,14.2c1,2.8,1.5,5.7,1.5,8.7
	c0,0.7-0.1,1.5-0.1,2.2C838.4,510.7,835.7,515.4,831.6,518.4z"/>
<path class="st16" d="M823.4,516.2l1.4,22.4l3.2,19.1l3.6,8.8l3.2,48.4c0,0,30.9,3.6,38.4-0.1c0.5-0.2,1-0.6,1.4-1.1
	c9.1-13.7,6.1-53.4,6.1-53.4l3.5-25.6l-2.3-13.3l-5.6-0.6l-4.3-0.5c0,0-1,1.2-2.4,3c-3.8,5-10.8,14.9-10.3,19
	c0.6,5.6-0.8,11.4-3,12.3s-4,2.4-4.3,0.9s-0.8-1.9-0.4-4.1s-1.7-8.8-1.7-8.8s-3.5-7.8-3.2-11.2s-0.4-7.2-1.4-8.1s-2.4-1.8-1.3-5.9
	s-5.1-12.1-5.1-12.1L823.4,516.2z"/>
<path class="st10" d="M864.2,572.3l1.3,38.3l7.4,4.1c0.5-0.2,1-0.6,1.4-1.1c9.1-13.7,6.1-53.4,6.1-53.4l3.5-25.6l-2.3-13.3l-5.6-0.6
	c2.2-10.3,3.6-20.3,1.2-21.3c-2.1-1-3.5-4.4-4.3-8.2l0,0l-4,27.1c0,0,0.3,2.5,0.5,5c0.2,1.6,0.1,3.2-0.3,4.8
	c-0.9,2.3-0.3,6.4-0.3,6.4c-2.3,4.1-3.5,11.6-4,18.9C863.9,563,864.2,572.3,864.2,572.3z"/>
<path class="st4" d="M872.9,490.6c0,0,6.5,0.8,8.5,3.5s7.4,3.1,7.4,3.1s6.2,2,6,2.6s1.8,1.3,5.6,2.3s10.3,4.7,10.3,5.6
	s10.2,10.9,10.2,11.9s3.1,4.9,2.7,11.7s-0.8,15.4,0.8,16.8s0,6.9,0,6.9c-0.8,1.2-0.9,2.8-0.1,4.1c1.3,2.3-0.2,11.9-0.2,11.9l0.1,10
	c0,0-1.4,6.3,0.3,6.5s-0.3,3.1-0.3,3.1s-1.4,5.1,0.4,7.4s2.3,12.2,2.3,12.2l27.4,39.9c0,0,0.4,7.3-8.3,7.2s-8.6,1.7-8.3,3.3
	s-2.4,3.5-2.4,3.5s-3.5,1.8-1.4,4s7.9,7.2-1.8,10.5c-1.1-1.6-2.1-3.3-2.8-5.1c-0.8-2.3-1.5-4.6-2-6.9c0,0-0.9-9.7-2.7-11
	s-1.5-7.4-1.5-7.4s2.6-5-1-7s-55.6-30.9-55.6-30.9l-1.3-38.4c0,0-0.9-28.3,4.5-37.8c0,0-0.6-4.1,0.3-6.4s-0.1-9.7-0.1-9.7
	L872.9,490.6z"/>
<path class="st10" d="M839.3,506c0,0-12.9-2.7-16.3-0.9s-10.2,3.2-11.3,4.2s-3.6,0.2-5.9,6.3c-2.3,6-2.6,12.2-5.5,15
	s-4.5,4.7-4.6,6.8s0.4,2.6-0.8,3.2s-2.8,3.3-2.3,4.3s26.7,23.6,26.7,23.6s1.3,8.6,2.4,10.8s-1.3,32.2-3.8,34.2s17.3,1.9,17.3,1.9
	s0.9-19.7,1.7-20.7s-0.5-22-0.5-22s-0.1-17.9,1.5-22.7s1.5-20.5,1.5-20.5s1.5-9.5,3.3-11.7S839.3,506,839.3,506z"/>
<path class="st4" d="M838.9,505.6c0,0-12.9-2.7-16.3-0.9s-10.2,3.2-11.2,4.2s-3.6,0.3-5.9,6.3c-2.3,6-2.6,12.2-5.5,15
	s-4.5,4.7-4.6,6.8s0.4,2.6-0.8,3.2s-2.8,3.3-2.3,4.4s26.7,23.6,26.7,23.6s1.3,8.6,2.4,10.8s-1.3,32.2-3.8,34.2s17.3,1.9,17.3,1.9
	s0.9-19.7,1.7-20.7s-0.5-22-0.5-22s-0.1-17.9,1.5-22.7s1.4-20.5,1.4-20.5s1.5-9.5,3.3-11.7S838.9,505.6,838.9,505.6z"/>
<path class="st10" d="M837.6,494.7c1,2.8,1.5,5.7,1.5,8.7c13,3.9,26.9-1.6,33.7-13.3c-0.6-3.2-1-6.3-1.2-9.6
	C871.6,480.5,832.1,478.4,837.6,494.7z"/>
<path class="st15" d="M818.1,474.5c0,16.2,13.1,29.3,29.4,29.3c16.2,0,29.3-13.1,29.3-29.4c0-16.2-13.1-29.3-29.4-29.3
	c-13.9,0-25.8,9.7-28.7,23.3C818.3,470.4,818.1,472.4,818.1,474.5z"/>
<path class="st4" d="M799.3,542.4l-7,2.2c0,0,0.7,2.6-1.4,3.8c-1.2,0.9-1.9,2.3-1.8,3.8c0,0-0.8,2.8-2.6,3.5s-3,4.9-3,4.9l-5.9,6.8
	c0,0-2.2,1.8-1.8,2.7s-2.3,1.2-2.3,1.2l1.3,22.8l12.2,2.3l7.6-0.8l6.2-2.3l5.4-3.2l2.4-6.3l10.8-16.4L799.3,542.4z"/>
<path class="st15" d="M775.3,573c0,0-15.6-22.6-27.3-10.4s4.7,31.9,8.6,31.3s22.2-1.7,22.2-1.7L775.3,573z"/>
<path class="st4" d="M742.5,527.8l70.1,35.8c0.8,0.4,1.1,1.3,0.7,2.1l-27.5,53.9c-0.4,0.8-1.3,1.1-2.1,0.7l-70.1-35.8
	c-0.8-0.4-1.1-1.3-0.7-2.1l27.5-53.9C740.8,527.7,741.8,527.4,742.5,527.8z"/>
<rect x="737.3" y="539.5" transform="matrix(0.4546 -0.8907 0.8907 0.4546 -94.8781 992.8008)" class="st2" width="51.8" height="68.8"/>
<circle class="st17" cx="730.3" cy="557" r="1.1"/>
<circle class="st17" cx="796.6" cy="591" r="1.9"/>
<path class="st15" d="M765.2,577.8c-0.1,16.9,34.9,20.5,34.9,20.5l8.9,1.4l4,0.6l1.7-16.5c0,0-1.8-0.3-4.1-0.8
	c-3.4-0.8-7.8-2.2-8.7-4.1C800.3,575.7,765.3,560.8,765.2,577.8z"/>
<path class="st10" d="M818.8,468.4c0.8,0.1,1.6,0.4,2.2,1c1,1,1,2.9,2.3,3.5c0.5,0.2,1,0.3,1.5,0.2c3.4-0.5,5.4-4.3,8.7-5.4
	c1.9-0.5,3.9-0.3,5.7,0.5c0.7,0.2,1.4,0.6,1.9,1.2c1.1,1.4,0.3,3.5,0.8,5.2c0.7,2.4,3.5,3.3,6,3.6s5.2,0.5,6.9,2.3
	c1.1,1.4,1.5,3.2,1.2,5c-0.1,0.6-0.1,1.2,0,1.8c0.7,1.9,4,1.6,4.9,0.1c0.6-1.1,0.5-2,1.9-2.3c1.1-0.1,2.2,0.1,3.1,0.5
	c2.6,0.9,5.4,1.3,8.1,1.2c6.9-14.7,0.6-32.2-14.1-39.1c-14.7-6.9-32.2-0.6-39.1,14.1C820,464.1,819.2,466.2,818.8,468.4L818.8,468.4
	z"/>
<path class="st4" d="M856,486.6c-0.1-0.6-0.1-1.2,0-1.8c0.3-1.8-0.1-3.6-1.2-5c-1.7-1.9-4.4-2-6.9-2.3s-5.3-1.3-6-3.6
	c-0.5-1.7,0.3-3.8-0.8-5.2c-0.5-0.6-1.2-1-1.9-1.2c-1.8-0.8-3.8-1-5.7-0.5c-3.3,1.1-5.2,4.9-8.7,5.4c-0.5,0.1-1.1,0-1.5-0.2
	c-1.3-0.6-1.3-2.5-2.3-3.5c-1.6-1.7-4.5-0.6-6.4-1.8c-1.2-0.8-1.7-2.4-2.1-3.8c-0.7-2.8-1.2-5.7-0.6-8.5c1.1-4.8,5.4-8,8.1-12.1
	c2.5-3.8,4-8.6,7.8-11.1s8.7-1.9,13-0.7c2,0.7,4,1.2,6.1,1.6c3.5,0.4,6.9-0.5,10.4-0.6c4.9-0.2,9.8,1.3,13.8,4.2
	c0.9,0.6,1.7,1.4,2.2,2.3c0.6,1.3,0.9,2.7,1,4.1c0.4,2.7,1.3,5.2,2.7,7.5c1.1,1.8,2.4,3.4,3.4,5.3c1.1,1.8,1.4,4,0.9,6.1
	c-0.3,1-1,2-1.2,3.1c-0.6,2.5,1.1,4.9,2.2,7.2c1.1,2.1,1.6,4.5,1.5,6.8c-0.1,2.4-1.2,4.6-3.1,6.1c-1.9,1.3-4.2,2-6.5,2
	c-2.8,0.1-5.6-0.3-8.3-1.3c-1-0.4-2.1-0.6-3.1-0.5c-1.5,0.3-1.3,1.2-1.9,2.3C860,488.2,856.6,488.5,856,486.6z"/>
<path class="st10" d="M840.2,652.1l16.5-12.9l26-25.6c0,0-3.5-0.2-8.6-0.4c-1,0.9-1.7,2.2-1.8,3.5c-0.1,3.1-7,0.2-10.6,2
	s-21.1,24.3-24.2,24.1s-5.5-1.6-6.8,0.6l-0.1,0.1c-0.5,0.6-1.2,1-2,1.2L840.2,652.1z"/>
<path class="st13" d="M806.8,651.2l8.3,26.5l1.3,4.2l4-1.1l8.7-2.4l38.8-10.7c4.9-0.2,9.7-1.5,14-3.7c7.3-4.1,15.7-5.9,24.1-5.3
	c5.1,0.5,10.8-1.7,15.6-10.5c0,0,10.8-31.8-16.4-40.9s-28.5,4.8-28.5,4.8l-0.4,0.2c-1,0.7-4,2.8-4.1,5.3c-0.1,3.1-7,0.2-10.6,2
	s-21.2,24.3-24.3,24.1s-5.5-1.6-6.8,0.6l-0.1,0.1c-1,1.3-3.8,1.6-5.7,1.7c-1,0-1.8,0-1.8,0l-0.2,0.1l-2,0.6L806.8,651.2z"/>
<path class="st10" d="M809,599.7l4,0.6l1.7-16.5c0,0-1.8-0.3-4.1-0.8C811.1,585.3,809.8,594.2,809,599.7z"/>
<path class="st10" d="M913.8,522.4c0,0,11.9-3.5,9,30.4s-25,55.2-25,55.2s-25.4,11.2-36.8,9.4c-6.5-1.1-13.1-1.8-19.7-2.2
	c-3.6-1.8-7.5-2.9-11.5-3.1c-6.4-0.2-19.9-4.2-20.1-5.5s3.3-20.1,1.8-21.5c0,0,17.9,0.7,19.7,2s4.4,0.4,6.3,0s7.8-5.5,19.5-1
	c0,0,4,0.4,5.5-0.6s4-0.3,4-0.3c1-0.3,1.9-0.8,2.8-1.4c0.4-0.5,3.5,0,3.5,0c0.7,0.3,1.5,0.1,1.8-0.6c0-0.1,0.1-0.2,0.1-0.3
	c0.4-1.1,1-2,1.8-2.8c0,0,3.5-19.5,10-26.8c0,0,1.9-1.7,1.4-3.7S898.4,518.3,913.8,522.4z"/>
<path class="st4" d="M913.5,519.8c0,0,11.9-3.5,9,30.4s-25,55.2-25,55.2s-25.4,11.2-36.8,9.4s-19.8-2.2-19.8-2.2
	c-3.6-1.8-7.5-2.9-11.5-3.1c-6.4-0.2-19.9-4.2-20.1-5.5s3.3-20.1,1.8-21.5c0,0,17.9,0.7,19.7,2s4.4,0.4,6.3,0s7.8-5.5,19.5-1
	c0,0,4,0.4,5.5-0.6s4-0.3,4-0.3c1-0.3,1.9-0.8,2.8-1.4c0.4-0.5,3.5,0,3.5,0c0.7,0.3,1.5,0.1,1.8-0.6c0-0.1,0.1-0.2,0.1-0.3
	c0.4-1,1-2,1.8-2.8c0,0,3.5-19.5,10-26.8c0,0,1.9-1.7,1.4-3.7S898.1,515.7,913.5,519.8z"/>
<path class="st10" d="M820.9,647l16.9,20.5c0.1-0.1,0.1-0.1,0.1-0.1c0.1-0.4,1.8-4.7,1.4-5s-3.3-6.7-9.2-9.4c-3-1.5-5.5-3.8-7.2-6.6
	L820.9,647z"/>
<path class="st10" d="M821.1,682.4l1.8,1.1c0,0,4.3-3.5,8.6-6.9s8.4-6.9,8.5-7c0.1-0.4,1.8-4.7,1.4-5c-0.2-0.1-1.1-1.9-2.7-4
	c-11.5-3.2-4.2,4.8-3.2,5.1c0,0-14-3.2-14.7,12C820.7,679.3,820.8,680.9,821.1,682.4z"/>
<path class="st4" d="M835.3,688.9l2.4,1.4l24.7,0.6c2.8,1.7,5.7,3.1,8.8,4.2c0.4,0.1,0.8,0.2,1.2,0.3c2.3,0.2,4.6,0.2,6.9,0.1
	c1.9,0,3.4-0.1,3.4-0.1s-1.2-31.2-2-34.5c-0.4-1.6-2.5-1.2-4.5-0.4c-1.5,0.6-3,1.4-4.4,2.2c0,0-10.5,1-12.2,1.9s-6.4-0.5-9.3,0
	s-8.2-3.5-8.2-3.5c-14.4-4.7-6.3,4.1-5.3,4.5c0,0-14-3.2-14.7,12S835.3,688.9,835.3,688.9z"/>
<path class="st18" d="M871,676.8c0.3,6.5,5.3,14.5,8.3,18.7c1.9,0,3.4-0.1,3.4-0.1s-1.2-31.2-2-34.5c-0.4-1.6-2.5-1.2-4.5-0.4
	C873.6,665.1,870.8,671.6,871,676.8z"/>
<path class="st10" d="M871,676.8c0.3,6.5,5.3,14.5,8.3,18.7c1.9,0,3.4-0.1,3.4-0.1s-1.2-31.2-2-34.5c-0.4-1.6-2.5-1.2-4.5-0.4
	C873.6,665.1,870.8,671.6,871,676.8z"/>
<path class="st14" d="M866.8,677.7c1.7,6.2,1.7,13.2,4.4,17.5c0.4,0.1,0.8,0.2,1.2,0.3c2.3,0.2,4.6,0.2,6.9,0.1
	c1.9,0,3.4-0.1,3.4-0.1s-1.2-31.2-2-34.5c-0.4-1.6-2.5-1.2-4.5-0.4c-1.5,0.6-3,1.4-4.4,2.2C871.7,662.7,864.6,669.7,866.8,677.7z"/>
<path class="st10" d="M781.5,614.5c0,0,12.3,4,22.7,18.2L781.5,614.5z"/>
<g class="st1">
	<path d="M881.3,460.7c0,0.1,0,0.2-0.1,0.3c-0.1,0.4-0.3,0.7-0.4,1.1C880.9,461.6,881.1,461.1,881.3,460.7z"/>
	<path d="M811.8,454.5c0.2-0.9,0.6-1.8,1-2.6c-0.1,0.2-0.1,0.4-0.2,0.7c-0.7,2.8-0.1,5.7,0.6,8.5c0.3,1.4,0.8,3,2.1,3.8
		c1.9,1.2,4.9,0.2,6.4,1.8c1,1,1,2.9,2.3,3.5c0.5,0.2,1,0.3,1.5,0.2c3.4-0.5,5.4-4.3,8.7-5.4c1.9-0.5,3.9-0.3,5.7,0.5
		c0.7,0.2,1.4,0.6,1.9,1.2c1.1,1.4,0.3,3.5,0.8,5.2c0.7,2.4,3.5,3.3,6,3.6s5.2,0.5,6.9,2.3c1.1,1.4,1.5,3.2,1.2,5
		c-0.1,0.6-0.1,1.2,0,1.8c0.7,1.9,4,1.6,4.9,0.1c0.6-1.1,0.4-2,1.9-2.3c1.1-0.1,2.2,0.1,3.1,0.5c2.7,0.9,5.5,1.3,8.3,1.2
		c2.3,0,4.6-0.7,6.5-2c0.8-0.7,1.5-1.5,2-2.4c-0.4,1.7-1.4,3.2-2.8,4.3c-1.9,1.3-4.2,2-6.5,2c-2.8,0.1-5.6-0.4-8.3-1.3
		c-1-0.4-2.1-0.6-3.1-0.5c-1.5,0.3-1.3,1.2-1.9,2.3c-0.9,1.5-4.2,1.8-4.9-0.1c-0.1-0.6-0.1-1.2,0-1.8c0.3-1.8-0.1-3.6-1.2-5
		c-1.7-1.9-4.4-2-6.9-2.3s-5.3-1.3-6-3.6c-0.5-1.7,0.3-3.8-0.8-5.2c-0.5-0.6-1.2-1-1.9-1.2c-1.8-0.8-3.8-1-5.7-0.5
		c-3.3,1.1-5.2,4.9-8.7,5.4c-0.5,0.1-1.1,0-1.5-0.2c-1.3-0.6-1.3-2.5-2.3-3.5c-1.6-1.7-4.5-0.6-6.4-1.8c-1.2-0.8-1.7-2.4-2.1-3.8
		C811.7,460.2,811.2,457.2,811.8,454.5z"/>
</g>
<path class="st10" d="M883.3,557c-2.3,3.2-5,6.1-7.1,9.5s-3.5,7.3-3.1,11.2c2.2-2.2,3.1-5.2,4.5-8c2.3-4.7,5.7-8.7,8.6-13
	c0.5-0.8,4.1-5.6,2.3-5.8C887,550.7,884.1,556,883.3,557z"/>
</svg>
